<svg width="117" height="115" viewBox="0 0 117 115" fill="none" xmlns="http://www.w3.org/2000/svg">
<mask id="mask0_118_2885" style="mask-type:luminance" maskUnits="userSpaceOnUse" x="0" y="0" width="117" height="115">
<path d="M58.0424 115C90.0984 115 116.085 89.2563 116.085 57.5C116.085 25.7436 90.0984 0 58.0424 0C25.9865 0 0 25.7436 0 57.5C0 89.2563 25.9865 115 58.0424 115Z" fill="white"/>
</mask>
<g mask="url(#mask0_118_2885)">
<path d="M58.0424 115C90.0984 115 116.085 89.2563 116.085 57.5C116.085 25.7436 90.0984 0 58.0424 0C25.9865 0 0 25.7436 0 57.5C0 89.2563 25.9865 115 58.0424 115Z" fill="#8FC3D8"/>
</g>
<mask id="mask1_118_2885" style="mask-type:luminance" maskUnits="userSpaceOnUse" x="0" y="0" width="117" height="115">
<path d="M58.0424 115C90.0984 115 116.085 89.2563 116.085 57.5C116.085 25.7436 90.0984 0 58.0424 0C25.9865 0 0 25.7436 0 57.5C0 89.2563 25.9865 115 58.0424 115Z" fill="white"/>
</mask>
<g mask="url(#mask1_118_2885)">
<path d="M17.8222 115H98.2631C98.2631 115 102.023 95.4711 98.2631 90.6574C93.8383 84.9922 70.2602 83.4702 70.2602 83.4702H45.8238C45.8238 83.4702 22.247 84.9922 17.8209 90.6574C14.0626 95.4698 17.8222 115 17.8222 115Z" fill="#FC611F"/>
<path d="M58.0419 83.4702H45.8237C45.8237 83.4702 45.9024 94.2913 58.0419 103.19C70.1839 94.2913 70.2588 83.4702 70.2588 83.4702H58.0419Z" fill="white"/>
<path d="M80.0623 49.6059C78.4066 48.5984 75.9751 50.5392 74.6343 53.9416C73.2923 57.344 73.5475 60.9187 75.2032 61.9262C76.8588 62.9325 79.2903 60.993 80.6311 57.5906C81.9731 54.1869 81.7167 50.6121 80.0623 49.6059Z" fill="#FEE69F"/>
<path d="M36.0239 49.6059C37.6796 48.5984 40.111 50.5392 41.4531 53.9416C42.7938 57.344 42.5412 60.9187 40.883 61.9262C39.226 62.9325 36.7971 60.993 35.4551 57.5906C34.113 54.1869 34.3669 50.6121 36.0239 49.6059Z" fill="#FEE69F"/>
<path d="M68.1385 59.5438H47.9454L45.8237 83.4701C45.8237 86.1165 51.2935 88.2624 58.0419 88.2624C64.7903 88.2624 70.2588 86.1165 70.2588 83.4701L68.1385 59.5438Z" fill="#FEE69F"/>
<path d="M80.5391 43.5305C80.5391 59.2847 70.4667 77.074 58.0415 77.074C45.6164 77.074 35.5439 59.2847 35.5439 43.5305C35.5439 27.7775 45.6164 20.0231 58.0415 20.0231C70.4667 20.0231 80.5391 27.7775 80.5391 43.5305Z" fill="#FEE69F"/>
<path opacity="0.4" d="M58.0412 20.0231C45.6161 20.0231 35.5449 27.7775 35.5449 43.5305C35.5449 59.2847 45.6173 77.074 58.0412 77.074V20.0231Z" fill="white"/>
<path opacity="0.1" d="M58.0427 77.0742C53.9619 77.0742 50.1389 75.1472 46.839 72.0127L46.7222 73.3259C50.0487 76.5308 53.9111 78.5119 58.0427 78.5119C62.1704 78.5119 66.0354 76.5446 69.3619 73.3435L69.2439 72.014C65.9452 75.1485 62.1222 77.0742 58.0427 77.0742Z" fill="black"/>
<path d="M79.2953 34.5723C79.2953 34.5723 79.2331 34.3647 79.115 33.9748C78.9766 33.5912 78.8713 33 78.5576 32.3007C78.4116 31.946 78.2504 31.5535 78.0752 31.1246C77.8657 30.7133 77.6384 30.2668 77.3959 29.7913C76.8829 28.8517 76.2201 27.8304 75.372 26.8065C74.5061 25.8015 73.4941 24.7588 72.2638 23.8418C71.0639 22.8846 69.6457 22.0683 68.1119 21.3916C66.582 20.6923 64.8983 20.2181 63.1728 19.8734C61.4346 19.525 59.6634 19.4206 57.8491 19.4017C56.1286 19.4168 54.2736 19.6294 52.5621 19.9602C50.8366 20.3338 49.1834 20.8922 47.6522 21.5828C46.1413 22.3161 44.7395 23.1525 43.5613 24.1387C42.9493 24.6016 42.4325 25.1437 41.9018 25.6267C41.4307 26.1701 40.9267 26.6493 40.5356 27.1876C39.7052 28.2253 39.0704 29.2656 38.5841 30.2177C38.353 30.702 38.1181 31.1422 37.9378 31.5674C37.7715 31.9963 37.6179 32.3912 37.4795 32.7472C37.1874 33.4528 37.0859 34.0515 36.9576 34.4364C36.8484 34.8276 36.79 35.0377 36.79 35.0377C36.9322 34.7622 37.0884 34.4968 37.2776 34.2629C37.6052 34.9911 38.16 35.7949 38.9739 36.7056C39.1224 35.9018 39.4399 35.2503 39.8665 34.6868C40.2106 35.4087 40.7845 36.2024 41.6174 37.0955C41.7469 36.2892 42.0491 35.6301 42.4643 35.0591C42.8236 35.7748 43.4115 36.5521 44.2634 37.4275C44.3764 36.6175 44.6646 35.9534 45.0659 35.371C45.4417 36.0792 46.0461 36.8439 46.9171 37.6992C47.0123 36.8892 47.284 36.2163 47.6725 35.6264C48.0623 36.3244 48.6845 37.0779 49.5707 37.9143C49.6469 37.1005 49.9059 36.4225 50.2792 35.8251C50.6855 36.5156 51.3254 37.2552 52.2307 38.0716C52.2904 37.2565 52.5303 36.5735 52.8922 35.9685C53.3125 36.649 53.9689 37.3747 54.892 38.1722C54.9351 37.3596 55.1573 36.6666 55.5052 36.0527C55.9407 36.7232 56.6124 37.4364 57.5545 38.2112C57.5773 37.3961 57.7868 36.7018 58.1195 36.0804C58.5702 36.742 59.2584 37.4389 60.217 38.1961C60.2221 37.3798 60.4151 36.6817 60.7351 36.054C61.2023 36.7056 61.9019 37.3898 62.8757 38.1231C62.8631 37.308 63.0433 36.6049 63.3506 35.9697C63.8293 36.6112 64.5466 37.2754 65.537 37.9885C65.5065 37.1735 65.6703 36.4678 65.9624 35.8251C66.4575 36.4565 67.1889 37.1068 68.1957 37.7973C68.1462 36.9835 68.2948 36.2729 68.5716 35.6251C69.0807 36.2439 69.826 36.8791 70.8494 37.5483C70.7821 36.7345 70.9129 36.0226 71.1769 35.3698C71.6988 35.9773 72.4606 36.5974 73.4979 37.2439C73.4129 36.4313 73.5297 35.7169 73.7785 35.0578C74.3131 35.6566 75.0876 36.2565 76.1389 36.8804C76.036 36.0703 76.1376 35.3534 76.3725 34.6893C76.921 35.2754 77.7095 35.859 78.7773 36.459C78.6554 35.6515 78.7392 34.9308 78.9614 34.2616C79.0617 34.3673 79.1785 34.4691 79.2953 34.5723Z" fill="#8F6C08"/>
</g>
</svg>
