<svg width="1063" height="313" viewBox="0 0 1063 313" fill="none" xmlns="http://www.w3.org/2000/svg">
<rect width="296" height="313" rx="37" fill="#1E5FAB"/>
<rect x="767" width="296" height="313" rx="37" fill="#1E5FAB"/>
<mask id="mask0_56_286" style="mask-type:luminance" maskUnits="userSpaceOnUse" x="785" y="10" width="260" height="260">
<path d="M1045 139.999C1045 211.794 986.797 269.997 915.001 269.997C843.208 269.997 785 211.794 785 139.999C785 68.1999 843.208 10 915.001 10C986.797 10 1045 68.1999 1045 139.999Z" fill="white"/>
</mask>
<g mask="url(#mask0_56_286)">
<path d="M824.915 269.997H1005.08C1005.08 269.997 1013.5 225.845 1005.08 214.962C995.17 202.154 942.364 198.713 942.364 198.713H887.634C887.634 198.713 834.829 202.154 824.912 214.962C816.498 225.842 824.915 269.997 824.915 269.997Z" fill="#FDC00F"/>
<path d="M916.628 240.047H913.377V269.994H916.628V240.047Z" fill="white"/>
<path d="M964.315 122.151C960.606 119.873 955.161 124.261 952.158 131.953C949.146 139.646 949.723 147.728 953.426 150.006C957.143 152.28 962.58 147.895 965.589 140.203C968.594 132.508 968.026 124.426 964.315 122.151Z" fill="#FEE69F"/>
<path d="M865.686 122.151C869.395 119.873 874.84 124.261 877.841 131.953C880.846 139.646 880.278 147.728 876.567 150.006C872.858 152.28 867.413 147.895 864.412 140.203C861.407 132.508 861.972 124.426 865.686 122.151Z" fill="#FEE69F"/>
<path d="M937.61 144.62H892.383L887.637 198.713C887.637 198.713 887.811 223.178 915.003 243.297C942.197 223.178 942.368 198.713 942.368 198.713L937.61 144.62Z" fill="#FEE69F"/>
<path opacity="0.1" d="M915.002 184.253C905.859 184.253 897.297 179.896 889.909 172.81L889.65 175.778C897.092 183.024 905.745 187.503 915.002 187.503C924.244 187.503 932.9 183.056 940.351 175.818L940.084 172.812C932.698 179.899 924.136 184.253 915.002 184.253Z" fill="black"/>
<path d="M965.387 108.416C965.387 144.034 942.827 184.253 915.001 184.253C887.173 184.253 864.61 144.034 864.61 108.416C864.61 72.801 887.173 55.2693 915.001 55.2693C942.827 55.2693 965.387 72.801 965.387 108.416Z" fill="#FEE69F"/>
<path opacity="0.4" d="M914.999 55.2693C887.17 55.2693 864.61 72.801 864.61 108.416C864.61 144.034 887.17 184.25 914.999 184.253V55.2693Z" fill="white"/>
<path d="M942.366 198.713L955.126 214.362L946.598 215.827L950.232 223.627L915.001 243.297L942.366 198.713Z" fill="white"/>
<path d="M887.636 198.713L874.871 214.362L883.405 215.827L879.77 223.627L915.001 243.297L887.636 198.713Z" fill="white"/>
<path d="M965.377 96.6259C964.592 91.7915 963.485 86.5135 961.06 81.3521C958.742 76.1879 955.404 71.0265 950.802 66.778C946.25 62.4953 940.593 59.0999 934.425 56.9244C928.254 54.7262 921.614 53.6996 915.003 53.6484C908.522 53.6854 901.677 54.7291 895.577 56.9216C889.406 59.097 883.753 62.4924 879.2 66.7723C874.604 71.0265 871.255 76.185 868.937 81.3493C866.517 86.5078 865.416 91.7943 864.626 96.6201C863.977 101.5 863.847 105.962 864.097 109.96C864.512 113.876 864.575 117.308 865.138 120.104C866.272 125.655 866.921 128.828 866.921 128.828H869.671C869.671 128.828 865.425 79.7767 891.357 70.4805C906.466 65.066 915 73.6712 915 73.6712C915 73.6712 923.542 65.066 938.648 70.4805C964.572 79.7767 960.326 128.828 960.326 128.828H963.073C963.073 128.828 963.724 125.663 964.859 120.126C965.422 117.359 965.487 113.893 965.897 109.943C966.144 105.928 966.031 101.568 965.377 96.6259Z" fill="#BE900B"/>
<path opacity="0.5" d="M906.464 124.705C906.464 132.076 900.484 138.051 893.121 138.051C885.75 138.051 879.764 132.073 879.764 124.705C879.764 117.337 885.75 111.359 893.121 111.359C900.484 111.357 906.464 117.337 906.464 124.705Z" fill="white"/>
<path d="M893.121 139.675C884.863 139.675 878.138 132.958 878.138 124.702C878.138 116.447 884.86 109.73 893.121 109.73C901.371 109.73 908.091 116.444 908.091 124.702C908.088 132.958 901.371 139.675 893.121 139.675ZM893.121 112.983C886.655 112.983 881.391 118.241 881.391 124.705C881.391 131.163 886.655 136.424 893.121 136.424C899.58 136.424 904.838 131.163 904.838 124.705C904.838 118.238 899.58 112.983 893.121 112.983Z" fill="#8FC3D8"/>
<path opacity="0.5" d="M950.232 124.705C950.232 132.076 944.257 138.051 936.889 138.051C929.521 138.051 923.541 132.073 923.541 124.705C923.541 117.337 929.521 111.359 936.889 111.359C944.257 111.359 950.232 117.337 950.232 124.705Z" fill="white"/>
<path d="M936.887 139.675C928.629 139.675 921.912 132.958 921.912 124.702C921.912 116.447 928.626 109.73 936.887 109.73C945.137 109.73 951.857 116.444 951.857 124.702C951.857 132.958 945.14 139.675 936.887 139.675ZM936.887 112.983C930.423 112.983 925.163 118.241 925.163 124.705C925.163 131.163 930.423 136.424 936.887 136.424C943.345 136.424 948.603 131.163 948.603 124.705C948.603 118.238 943.348 112.983 936.887 112.983Z" fill="#8FC3D8"/>
<path d="M906.936 121.799L904.695 119.441C907.49 116.788 911.156 115.329 915.001 115.329C918.848 115.329 922.502 116.788 925.295 119.436L923.054 121.793C918.689 117.647 911.309 117.647 906.936 121.799Z" fill="#8FC3D8"/>
<path d="M950.205 126.329C949.462 126.329 948.797 125.82 948.618 125.069C948.422 124.196 948.962 123.323 949.835 123.118L963.926 119.868C964.81 119.666 965.672 120.212 965.879 121.088C966.078 121.961 965.535 122.834 964.659 123.036L950.569 126.289C950.446 126.315 950.327 126.329 950.205 126.329Z" fill="#8FC3D8"/>
<path d="M879.765 126.292C879.648 126.292 879.526 126.278 879.404 126.252L865.313 122.999C864.434 122.797 863.891 121.921 864.096 121.051C864.295 120.175 865.165 119.629 866.044 119.831L880.135 123.081C881.013 123.28 881.551 124.156 881.355 125.029C881.175 125.786 880.507 126.292 879.765 126.292Z" fill="#8FC3D8"/>
</g>
<mask id="mask1_56_286" style="mask-type:luminance" maskUnits="userSpaceOnUse" x="18" y="9" width="260" height="261">
<path d="M278 139.004C278 210.799 219.799 269.006 148.001 269.006C76.2012 269.006 18 210.802 18 139.004C18 67.204 76.2012 9 148.001 9C219.796 9 278 67.204 278 139.004Z" fill="white"/>
</mask>
<g mask="url(#mask1_56_286)">
<path d="M178.591 197.99C176.805 197.828 175.246 196.267 175.081 194.481L170.597 143.651H125.389L120.938 194.481C120.773 196.267 119.184 197.828 117.392 197.99C116.192 198.09 114.696 198.221 112.976 198.38C112.976 198.38 112.976 198.38 113.007 198.411C113.169 198.769 114.534 201.599 117.102 205.171C118.467 207.122 120.128 209.263 122.042 211.475C123.893 213.716 126.009 215.991 128.184 218.17C130.363 220.382 132.669 222.461 134.913 224.315C137.122 226.198 139.267 227.887 141.217 229.221C145.02 231.951 147.946 233.347 147.98 233.381H148.014C148.014 233.381 148.014 233.381 148.045 233.347C148.37 233.154 151.196 231.789 154.771 229.221C156.722 227.887 158.9 226.198 161.11 224.315C163.322 222.461 165.631 220.382 167.807 218.17C170.017 215.991 172.095 213.716 173.981 211.475C175.866 209.263 177.521 207.122 178.892 205.171C181.454 201.596 182.856 198.769 183.018 198.411C183.05 198.38 183.05 198.38 183.05 198.38C181.289 198.221 179.793 198.09 178.591 197.99Z" fill="#FEE69F"/>
<path d="M197.318 121.168C193.607 118.893 188.164 123.281 185.155 130.971C182.152 138.663 182.727 146.745 186.432 149.02C190.144 151.295 195.587 146.907 198.59 139.215C201.595 131.528 201.024 123.446 197.318 121.168Z" fill="#FEE69F"/>
<path d="M98.6798 121.168C102.388 118.893 107.834 123.281 110.84 130.971C113.843 138.663 113.271 146.745 109.563 149.02C105.852 151.295 100.409 146.907 97.4058 139.215C94.3999 131.528 94.9715 123.446 98.6798 121.168Z" fill="#FEE69F"/>
<path d="M198.386 107.436C198.386 143.051 175.826 183.271 147.997 183.271C120.167 183.271 97.6074 143.051 97.6074 107.436C97.6074 71.817 120.167 54.2878 147.997 54.2878C175.826 54.2878 198.386 71.817 198.386 107.436Z" fill="#FEE69F"/>
<path opacity="0.1" d="M147.996 183.271C138.859 183.271 130.296 178.914 122.908 171.831L122.646 174.799C130.094 182.043 138.745 186.524 147.996 186.524C157.244 186.524 165.901 182.074 173.351 174.839L173.087 171.833C165.699 178.914 157.136 183.271 147.996 183.271Z" fill="black"/>
<path d="M238.072 213.981C246.521 224.873 238.072 269.006 238.072 269.006H57.917C57.917 269.006 49.4993 224.87 57.917 213.981C65.4587 204.201 97.9605 199.907 112.976 198.383C112.976 198.383 112.976 198.383 113.007 198.414C113.169 198.773 114.534 201.602 117.102 205.174C118.467 207.125 120.128 209.266 122.042 211.479C123.893 213.72 126.009 215.995 128.184 218.173C130.363 220.386 132.669 222.464 134.913 224.318C137.122 226.201 139.267 227.89 141.217 229.224C145.02 231.954 147.946 233.35 147.98 233.385H148.014C148.014 233.385 148.014 233.385 148.045 233.35C148.37 233.157 151.196 231.792 154.771 229.224C156.722 227.89 158.9 226.201 161.11 224.318C163.322 222.464 165.632 220.386 167.807 218.173C170.017 215.995 172.095 213.72 173.981 211.479C175.866 209.266 177.521 207.125 178.892 205.174C181.454 201.599 182.856 198.773 183.019 198.414C183.05 198.383 183.05 198.383 183.05 198.383C198.028 199.907 230.53 204.201 238.072 213.981Z" fill="#FC611F"/>
<path opacity="0.4" d="M147.994 54.2878V183.271C120.167 183.268 97.6074 143.051 97.6074 107.436C97.6074 71.817 120.167 54.2878 147.994 54.2878Z" fill="white"/>
<path d="M198.923 101.381C198.778 99.1999 198.494 96.8794 198.198 94.4735C197.302 89.7414 196.111 84.5799 193.685 79.518C191.282 74.4873 187.901 69.4822 183.319 65.3672C178.783 61.221 173.195 57.9478 167.112 55.8405C161.004 53.7133 154.566 52.7152 147.934 52.6611L143.179 52.8744C141.569 53.0138 139.914 53.2726 138.293 53.4688C135.074 54.0205 131.932 54.7741 128.883 55.8377C122.806 57.9449 117.218 61.2238 112.679 65.3701C108.098 69.485 104.711 74.4844 102.311 79.5208C99.8822 84.5771 98.6935 89.7414 97.7977 94.4764C97.5019 96.8708 97.2204 99.1658 97.0725 101.353C97.0526 103.554 97.0355 105.641 97.0156 107.603C97.3711 111.46 97.536 114.827 97.9228 117.588C98.9807 123.062 99.5836 126.19 99.5836 126.19L104.125 127.086C104.125 127.086 105.413 86.4654 120.639 80.7664C135.865 75.0674 148.002 80.7664 148.002 80.7664C148.002 80.7664 160.139 75.0674 175.365 80.7664C190.585 86.4682 191.873 127.086 191.873 127.086L196.415 126.19C196.415 126.19 197.018 123.074 198.067 117.616C198.454 114.864 198.622 111.468 198.98 107.569C198.96 105.63 198.94 103.562 198.923 101.381Z" fill="#8F6C08"/>
</g>
</svg>
